inDegrees=yes
name=ik_S44_A03_T01
DataType=double
version=3
OpenSimVersion=4.3-2021-08-27-4bc7ad9
endheader
time	pelvis_tilt	pelvis_list	pelvis_rotation	pelvis_tx	pelvis_ty	pelvis_tz	hip_flexion_r	hip_adduction_r	hip_rotation_r	knee_angle_r	knee_angle_r_beta	ankle_angle_r	subtalar_angle_r	mtp_angle_r	hip_flexion_l	hip_adduction_l	hip_rotation_l	knee_angle_l	knee_angle_l_beta	ankle_angle_l	subtalar_angle_l	mtp_angle_l	lumbar_extension	lumbar_bending	lumbar_rotation	arm_flex_r	arm_add_r	arm_rot_r	elbow_flex_r	pro_sup_r	wrist_flex_r	wrist_dev_r	arm_flex_l	arm_add_l	arm_rot_l	elbow_flex_l	pro_sup_l	wrist_flex_l	wrist_dev_l
39.18000000000053	1.017519523952716	2.2824009911286	-84.50655946154788	0	0.9399999999999999	0	22.77379293938011	2.146834340589924	-6.684520663038043	46.32625119445282	0.8085456134491575	0	0	0	7.570851576086065	3.886111083524316	-4.101468849892778	7.156297115336848	0.1249009469136004	0	0	0	0	0	0	43.22298567524354	-43.22298567524346	4.982294580219574	84.75040874647063	85.01770569340638	0	0	43.22298567524354	-43.22298567524346	4.982294580219574	84.75040874647063	85.01770569340304	0	0
39.20000000000053	1.01701407624051	2.286174106253794	-84.50673528664109	0	0.9399999999999999	0	24.04723410127328	2.751411131442928	-5.279302451223729	43.56341239304079	0.7603249796626638	0	0	0	6.64622155834843	3.743280128663445	-4.301466081657514	6.414406533491928	0.1119525135708701	0	0	0	0	0	0	43.22489543073995	-43.22489543073987	4.982328796441376	84.75089109414388	85.01767147718581	0	0	43.22489543073995	-43.22489543073987	4.982328796441376	84.75089109414388	85.01767147718252	0	0
39.22000000000053	1.048246344003938	2.130212328688695	-83.5729323711018	0	0.9399999999999999	0	24.85459433428726	3.013346182802043	-4.727561939222557	40.19108871890971	0.7014668281061242	0	0	0	5.625163768550567	3.729508296801193	-3.384366747705906	5.765231260933614	0.1006222676421959	0	0	0	0	0	0	43.22806136735852	-43.22806136735844	4.98238460628467	84.75167784783602	85.0176156673446	0	0	43.22806136735852	-43.22806136735844	4.98238460628467	84.75167784783602	85.0176156673412	0	0
39.24000000000053	1.166501760146938	2.045010398104419	-83.06212097723592	0	0.9399999999999999	0	25.87858097818657	3.630350875921181	-2.692399540350642	36.97900954349092	0.6454054706603217	0	0	0	4.596887130262205	4.219191527971341	-3.073975459449748	7.572618236612643	0.1321671212254576	0	0	0	0	0	0	43.23478734335682	-43.23478734335674	4.982499857107006	84.75330254247447	85.01750041652652	0	0	43.23478734335682	-43.23478734335674	4.982499857107006	84.75330254247447	85.01750041652313	0	0
39.26000000000054	1.295811115463812	1.962300832716338	-82.60571326816634	0	0.9399999999999999	0	26.17140632886351	4.148013047480775	-1.882915678338067	28.11554275354855	0.4907087920346548	0	0	0	3.731910564687784	4.484728855375467	-2.632347694366429	8.442155170588407	0.1473434036910313	0	0	0	0	0	0	43.24694649154772	-43.24694649154764	4.982705938879318	84.75620768322605	85.01729433476167	0	0	43.24694649154772	-43.24694649154764	4.982705938879318	84.75620768322605	85.01729433475833	0	0
39.28000000000054	1.373215938810391	1.960703110046056	-82.11406541981555	0	0.9399999999999999	0	26.18802613356215	4.101786993421691	-1.609871788559998	25.70867654040806	0.4487010519603457	0	0	0	3.053425936255831	4.711524447980282	-2.036615396969399	8.758188152404857	0.1528592197686237	0	0	0	0	0	0	43.24733280452255	-43.24733280452247	4.982713594591969	84.75631560637299	85.01728667904931	0	0	43.24733280452255	-43.24733280452247	4.982713594591969	84.75631560637299	85.01728667904598	0	0
39.30000000000054	1.377464299398186	2.000918150501815	-81.66246911242993	0	0.9399999999999999	0	25.91635137175933	4.247127880427477	-1.722202963370689	20.59464792892756	0.3594444146488172	0	0	0	1.869378659327778	4.918464208377326	-1.153328245823707	8.683661138944192	0.1515584780020569	0	0	0	0	0	0	43.24845295047714	-43.24845295047705	4.982735528754878	84.75662481381104	85.01726474488707	0	0	43.24845295047714	-43.24845295047705	4.982735528754878	84.75662481381104	85.01726474488376	0	0
39.32000000000055	1.374549064216574	1.984193203901788	-81.45385817852541	0	0.9399999999999999	0	25.00798607384275	4.635316333759886	-2.600537703726076	14.77642986714914	0.2578973528717807	0	0	0	1.200138197047436	4.986347328341555	-1.079922398429921	8.645724327233983	0.1508963557300046	0	0	0	0	0	0	43.24929313901716	-43.24929313901708	4.982752012547024	84.75685718699614	85.01724826109539	0	0	43.24929313901716	-43.24929313901708	4.982752012547024	84.75685718699614	85.01724826109206	0	0
39.34000000000055	1.359793933502934	1.848370914696326	-80.97400013663609	0	0.9399999999999999	0	23.8036854555863	4.936511777837301	-4.358059656383219	9.032526966060431	0.1576473353329286	0	0	0	0.2496354083687123	5.006804524010509	-1.074839472311648	9.984182368897839	0.1742568554568344	0	0	0	0	0	0	43.2500016908843	-43.25000169088422	4.982765973006246	84.75705398859338	85.01723430063672	0	0	43.2500016908843	-43.25000169088422	4.982765973006246	84.75705398859338	85.01723430063339	0	0
39.36000000000055	1.400195679771474	1.798072110988879	-80.54293086674623	0	0.9399999999999999	0	23.86079249000834	4.944211358697935	-4.745205496610841	4.814324491509508	0.0840258136362427	0	0	0	-0.7218719843174551	4.988459942454083	-1.045069792810723	10.26601630279797	0.1791757855472398	0	0	0	0	0	0	43.2507089913833	-43.25070899138321	4.982779901709075	84.75725034251401	85.01722037193446	0	0	43.2507089913833	-43.25070899138321	4.982779901709075	84.75725034251401	85.01722037193115	0	0
39.38000000000056	1.482739513581936	1.91925012515382	-80.21742790719773	0	0.9399999999999999	0	23.21776303977319	5.072614237899665	-5.703490613141463	2.3569309396375	0.04113620513879811	0	0	0	-1.491766273600915	5.048390647096049	-1.041097554750033	10.49115980094983	0.1831052808794475	0	0	0	0	0	0	43.25136215299302	-43.25136215299293	4.982792822041906	84.75743248138568	85.01720745160212	0	0	43.25136215299302	-43.25136215299293	4.982792822041906	84.75743248138568	85.01720745159879	0	0
39.40000000000056	1.652074041810219	1.839597806550939	-79.87131467814045	0	0.9399999999999999	0	23.3107127345056	4.985691664488971	-5.637294111059516	-0.0007402626787415642	-1.292002107367333e-05	0	0	0	-1.692659692718393	5.186260044373443	-0.868225992234961	11.40857620327324	0.1991172177117919	0	0	0	0	0	0	43.25170932297059	-43.25170932297051	4.982799677458044	84.75752912268247	85.01720059618624	0	0	43.25170932297059	-43.25170932297051	4.982799677458044	84.75752912268247	85.01720059618293	0	0
